[IMG]http://i.imgur.com/62cIB.jpg[/IMG]
[code]
Playing.for.Keeps.2012.CAM.XVID-26K
 
http://www.imdb.com/title/tt1540128/

Plot:
A former sports star who's fallen on hard times starts coaching his son's soccer team as a way to get his life 

together. His attempts to become an adult are met with challenges from the attractive soccer moms who pursue him 

at every turn.

Sources - Audio-LIGHT....Thanks :P
          VIDEO-LIGHT.....Thanks :P
          Subs-NO....
Video
ID                                       : 0
Format                                   : MPEG-4 Visual
Format profile                           : Advanced Simple@L5
Format settings, BVOP                    : 2
Format settings, QPel                    : No
Format settings, GMC                     : No warppoints
Format settings, Matrix                  : Default (H.263)
Muxing mode                              : Packed bitstream
Codec ID                                 : XVID
Codec ID/Hint                            : XviD
Duration                                 : 1h 36mn
Bit rate                                 : 1 544 Kbps
Width                                    : 720 pixels
Height                                   : 304 pixels
Display aspect ratio                     : 2.35:1
Frame rate                               : 29.970 fps
Color space                              : YUV
Chroma subsampling                       : 4:2:0
Bit depth                                : 8 bits
Scan type                                : Progressive
Compression mode                         : Lossy
Bits/(Pixel*Frame)                       : 0.235
Stream size                              : 1.04 GiB (87%)
Writing library                          : XviD 64

Audio
ID                                       : 1
Format                                   : MPEG Audio
Format version                           : Version 1
Format profile                           : Layer 3
Mode                                     : Joint stereo
Mode extension                           : MS Stereo
Codec ID                                 : 55
Codec ID/Hint                            : MP3
Duration                                 : 1h 36mn
Bit rate mode                            : Constant
Bit rate                                 : 224 Kbps
Channel(s)                               : 2 channels
Sampling rate                            : 44.1 KHz
Compression mode                         : Lossy
Delay relative to video                  : 200ms
Stream size                              : 155 MiB (13%)
Alignment                                : Split accross interleaves
Interleave, duration                     : 9351 ms (280.24 video frames)
Writing library                          : LAME3.99r
Encoding settings                        : -m j -V 4 -q 3 -lowpass 19.4 -b 224

Notes -
video is nice.. has a slight flicker.. is cropped from the top and bottom.. ran few filters of the light copy.. 

came out nice is slightly dark on the night scenes but still watchable!
 enjoy until new source ;)

[/code]

Screens:
[IMG]http://i.imgur.com/wq5EU.png[/IMG]
[IMG]http://i.imgur.com/37nmu.png[/IMG]
[IMG]http://i.imgur.com/FkDFk.png[/IMG]
[IMG]http://i.imgur.com/nzYVZ.png[/IMG]
[IMG]http://s6.postimage.org/auefekmsh/vlcsnap_2012_12_16_12h25m21s251.png[/IMG]
[IMG]http://s6.postimage.org/qtx2y4iu9/vlcsnap_2012_12_16_12h25m32s135.png[/IMG]
[IMG]http://s6.postimage.org/4w0m4c3tt/vlcsnap_2012_12_16_12h25m44s5.png[/IMG]
[IMG]http://s6.postimage.org/g9n5fjech/vlcsnap_2012_12_16_12h25m49s68.png[/IMG]
[IMG]http://s6.postimage.org/vweesws4h/vlcsnap_2012_12_16_12h26m04s219.png[/IMG]

Greetz:
XtremeEncode|CM8|RX|VISION|HDSCENE|xTriLL|DTRG|CRYS|BIDA|RX|REFILL|INSPiRAL|AXED|HOPE|Anonymous|NOIR|

Blackjesus|Gabroo Punjab Deh|UNiQUE|DQ1|RESiSTANCE|HS||LEGION|STN|BOBBYBLUE|LIFT

To all the people who have helped me  you know who you are

Anything to offer email us @: 26k@hushmail.me
<<bullying has to be stopped now!>>